<svg xmlns="http://www.w3.org/2000/svg" viewBox="0 0 100 32">
  <path fill="#00AA13" d="M12.9 15.6c0 5.4-3.1 8.5-7.6 8.5-3.3 0-5.7-1.8-6.1-5.6h3.4c.2 1.7 1.1 2.5 2.8 2.5 2.1 0 3.9-1.3 3.9-5.3V15h-.1c-.6.9-2.1 1.6-4 1.6-3.8 0-6.1-3.2-6.1-7 0-3.9 2.5-7 6.3-7 2.1 0 3.6.8 4.2 1.8h.1V3h3.2v12.6zm-3.6-6c0-2.3-1.3-4-3.5-4-2.1 0-3.1 1.6-3.1 4 0 2.3 1.1 4.1 3.2 4.1 2 0 3.4-1.7 3.4-4.1zM28.4 9.6c0 4.1-2.9 7-7 7-4.1 0-7-2.9-7-7s2.9-7 7-7c4.1-.1 7 2.9 7 7zm-3.5 0c0-2.3-1.4-3.9-3.5-3.9-2.2 0-3.5 1.6-3.5 3.9 0 2.3 1.3 3.9 3.5 3.9 2.1 0 3.5-1.6 3.5-3.9zM38.6 3v1.8h-3.4v16.1h-3.4V4.8h-1.6V3h8.4zM43.8 19.3h-3.4V3h3.4v16.3zM67.3 3l-5.6 16.3h-3.3l-1.9-6-2.1 6H51L45.5 3h3.6l3.6 11.2h.1L57 3h3l3.5 11.1h.1L64 3h3.3z"/>
  <circle cx="85" cy="16" r="12" fill="#00AED6"/>
  <circle cx="85" cy="16" r="8" fill="#FFF"/>
  <circle cx="85" cy="16" r="4" fill="#00AED6"/>
</svg>
